<svg aria-roledescription="mindmap" role="graphics-document document" viewBox="-14.736909866333008 -9.576021194458008 940.1106567382812 466.5613098144531" style="max-width: 940.111px; background-color: white;" xmlns:xlink="http://www.w3.org/1999/xlink" xmlns="http://www.w3.org/2000/svg" width="100%" id="my-svg"><style>#my-svg{font-family:"trebuchet ms",verdana,arial,sans-serif;font-size:16px;fill:#333;}#my-svg .error-icon{fill:#552222;}#my-svg .error-text{fill:#552222;stroke:#552222;}#my-svg .edge-thickness-normal{stroke-width:2px;}#my-svg .edge-thickness-thick{stroke-width:3.5px;}#my-svg .edge-pattern-solid{stroke-dasharray:0;}#my-svg .edge-pattern-dashed{stroke-dasharray:3;}#my-svg .edge-pattern-dotted{stroke-dasharray:2;}#my-svg .marker{fill:#333333;stroke:#333333;}#my-svg .marker.cross{stroke:#333333;}#my-svg svg{font-family:"trebuchet ms",verdana,arial,sans-serif;font-size:16px;}#my-svg .edge{stroke-width:3;}#my-svg .section--1 rect,#my-svg .section--1 path,#my-svg .section--1 circle,#my-svg .section--1 polygon,#my-svg .section--1 path{fill:hsl(240, 100%, 76.2745098039%);}#my-svg .section--1 text{fill:#ffffff;}#my-svg .node-icon--1{font-size:40px;color:#ffffff;}#my-svg .section-edge--1{stroke:hsl(240, 100%, 76.2745098039%);}#my-svg .edge-depth--1{stroke-width:17;}#my-svg .section--1 line{stroke:hsl(60, 100%, 86.2745098039%);stroke-width:3;}#my-svg .disabled,#my-svg .disabled circle,#my-svg .disabled text{fill:lightgray;}#my-svg .disabled text{fill:#efefef;}#my-svg .section-0 rect,#my-svg .section-0 path,#my-svg .section-0 circle,#my-svg .section-0 polygon,#my-svg .section-0 path{fill:hsl(60, 100%, 73.5294117647%);}#my-svg .section-0 text{fill:black;}#my-svg .node-icon-0{font-size:40px;color:black;}#my-svg .section-edge-0{stroke:hsl(60, 100%, 73.5294117647%);}#my-svg .edge-depth-0{stroke-width:14;}#my-svg .section-0 line{stroke:hsl(240, 100%, 83.5294117647%);stroke-width:3;}#my-svg .disabled,#my-svg .disabled circle,#my-svg .disabled text{fill:lightgray;}#my-svg .disabled text{fill:#efefef;}#my-svg .section-1 rect,#my-svg .section-1 path,#my-svg .section-1 circle,#my-svg .section-1 polygon,#my-svg .section-1 path{fill:hsl(80, 100%, 76.2745098039%);}#my-svg .section-1 text{fill:black;}#my-svg .node-icon-1{font-size:40px;color:black;}#my-svg .section-edge-1{stroke:hsl(80, 100%, 76.2745098039%);}#my-svg .edge-depth-1{stroke-width:11;}#my-svg .section-1 line{stroke:hsl(260, 100%, 86.2745098039%);stroke-width:3;}#my-svg .disabled,#my-svg .disabled circle,#my-svg .disabled text{fill:lightgray;}#my-svg .disabled text{fill:#efefef;}#my-svg .section-2 rect,#my-svg .section-2 path,#my-svg .section-2 circle,#my-svg .section-2 polygon,#my-svg .section-2 path{fill:hsl(270, 100%, 76.2745098039%);}#my-svg .section-2 text{fill:#ffffff;}#my-svg .node-icon-2{font-size:40px;color:#ffffff;}#my-svg .section-edge-2{stroke:hsl(270, 100%, 76.2745098039%);}#my-svg .edge-depth-2{stroke-width:8;}#my-svg .section-2 line{stroke:hsl(90, 100%, 86.2745098039%);stroke-width:3;}#my-svg .disabled,#my-svg .disabled circle,#my-svg .disabled text{fill:lightgray;}#my-svg .disabled text{fill:#efefef;}#my-svg .section-3 rect,#my-svg .section-3 path,#my-svg .section-3 circle,#my-svg .section-3 polygon,#my-svg .section-3 path{fill:hsl(300, 100%, 76.2745098039%);}#my-svg .section-3 text{fill:black;}#my-svg .node-icon-3{font-size:40px;color:black;}#my-svg .section-edge-3{stroke:hsl(300, 100%, 76.2745098039%);}#my-svg .edge-depth-3{stroke-width:5;}#my-svg .section-3 line{stroke:hsl(120, 100%, 86.2745098039%);stroke-width:3;}#my-svg .disabled,#my-svg .disabled circle,#my-svg .disabled text{fill:lightgray;}#my-svg .disabled text{fill:#efefef;}#my-svg .section-4 rect,#my-svg .section-4 path,#my-svg .section-4 circle,#my-svg .section-4 polygon,#my-svg .section-4 path{fill:hsl(330, 100%, 76.2745098039%);}#my-svg .section-4 text{fill:black;}#my-svg .node-icon-4{font-size:40px;color:black;}#my-svg .section-edge-4{stroke:hsl(330, 100%, 76.2745098039%);}#my-svg .edge-depth-4{stroke-width:2;}#my-svg .section-4 line{stroke:hsl(150, 100%, 86.2745098039%);stroke-width:3;}#my-svg .disabled,#my-svg .disabled circle,#my-svg .disabled text{fill:lightgray;}#my-svg .disabled text{fill:#efefef;}#my-svg .section-5 rect,#my-svg .section-5 path,#my-svg .section-5 circle,#my-svg .section-5 polygon,#my-svg .section-5 path{fill:hsl(0, 100%, 76.2745098039%);}#my-svg .section-5 text{fill:black;}#my-svg .node-icon-5{font-size:40px;color:black;}#my-svg .section-edge-5{stroke:hsl(0, 100%, 76.2745098039%);}#my-svg .edge-depth-5{stroke-width:-1;}#my-svg .section-5 line{stroke:hsl(180, 100%, 86.2745098039%);stroke-width:3;}#my-svg .disabled,#my-svg .disabled circle,#my-svg .disabled text{fill:lightgray;}#my-svg .disabled text{fill:#efefef;}#my-svg .section-6 rect,#my-svg .section-6 path,#my-svg .section-6 circle,#my-svg .section-6 polygon,#my-svg .section-6 path{fill:hsl(30, 100%, 76.2745098039%);}#my-svg .section-6 text{fill:black;}#my-svg .node-icon-6{font-size:40px;color:black;}#my-svg .section-edge-6{stroke:hsl(30, 100%, 76.2745098039%);}#my-svg .edge-depth-6{stroke-width:-4;}#my-svg .section-6 line{stroke:hsl(210, 100%, 86.2745098039%);stroke-width:3;}#my-svg .disabled,#my-svg .disabled circle,#my-svg .disabled text{fill:lightgray;}#my-svg .disabled text{fill:#efefef;}#my-svg .section-7 rect,#my-svg .section-7 path,#my-svg .section-7 circle,#my-svg .section-7 polygon,#my-svg .section-7 path{fill:hsl(90, 100%, 76.2745098039%);}#my-svg .section-7 text{fill:black;}#my-svg .node-icon-7{font-size:40px;color:black;}#my-svg .section-edge-7{stroke:hsl(90, 100%, 76.2745098039%);}#my-svg .edge-depth-7{stroke-width:-7;}#my-svg .section-7 line{stroke:hsl(270, 100%, 86.2745098039%);stroke-width:3;}#my-svg .disabled,#my-svg .disabled circle,#my-svg .disabled text{fill:lightgray;}#my-svg .disabled text{fill:#efefef;}#my-svg .section-8 rect,#my-svg .section-8 path,#my-svg .section-8 circle,#my-svg .section-8 polygon,#my-svg .section-8 path{fill:hsl(150, 100%, 76.2745098039%);}#my-svg .section-8 text{fill:black;}#my-svg .node-icon-8{font-size:40px;color:black;}#my-svg .section-edge-8{stroke:hsl(150, 100%, 76.2745098039%);}#my-svg .edge-depth-8{stroke-width:-10;}#my-svg .section-8 line{stroke:hsl(330, 100%, 86.2745098039%);stroke-width:3;}#my-svg .disabled,#my-svg .disabled circle,#my-svg .disabled text{fill:lightgray;}#my-svg .disabled text{fill:#efefef;}#my-svg .section-9 rect,#my-svg .section-9 path,#my-svg .section-9 circle,#my-svg .section-9 polygon,#my-svg .section-9 path{fill:hsl(180, 100%, 76.2745098039%);}#my-svg .section-9 text{fill:black;}#my-svg .node-icon-9{font-size:40px;color:black;}#my-svg .section-edge-9{stroke:hsl(180, 100%, 76.2745098039%);}#my-svg .edge-depth-9{stroke-width:-13;}#my-svg .section-9 line{stroke:hsl(0, 100%, 86.2745098039%);stroke-width:3;}#my-svg .disabled,#my-svg .disabled circle,#my-svg .disabled text{fill:lightgray;}#my-svg .disabled text{fill:#efefef;}#my-svg .section-10 rect,#my-svg .section-10 path,#my-svg .section-10 circle,#my-svg .section-10 polygon,#my-svg .section-10 path{fill:hsl(210, 100%, 76.2745098039%);}#my-svg .section-10 text{fill:black;}#my-svg .node-icon-10{font-size:40px;color:black;}#my-svg .section-edge-10{stroke:hsl(210, 100%, 76.2745098039%);}#my-svg .edge-depth-10{stroke-width:-16;}#my-svg .section-10 line{stroke:hsl(30, 100%, 86.2745098039%);stroke-width:3;}#my-svg .disabled,#my-svg .disabled circle,#my-svg .disabled text{fill:lightgray;}#my-svg .disabled text{fill:#efefef;}#my-svg .section-root rect,#my-svg .section-root path,#my-svg .section-root circle,#my-svg .section-root polygon{fill:hsl(240, 100%, 46.2745098039%);}#my-svg .section-root text{fill:#ffffff;}#my-svg .icon-container{height:100%;display:flex;justify-content:center;align-items:center;}#my-svg .edge{fill:none;}#my-svg .mindmap-node-label{dy:1em;alignment-baseline:middle;text-anchor:middle;dominant-baseline:middle;text-align:center;}#my-svg :root{--mermaid-font-family:"trebuchet ms",verdana,arial,sans-serif;}</style><g/><g class="mindmap-edges"><path class="edge section-edge-0 edge-depth-1" d="M 455.6512486870818,110.06785583276766 L 453.4361231234702,79.46435824887563 L451.22099755985863,48.860860664983605"/><path class="edge section-edge-0 edge-depth-0" d="M 460.13153749534956,202.28062364969549 L 458.762355507464,171.14742776888846 L457.39317351957845,140.0142318880815"/><path class="edge section-edge-1 edge-depth-1" d="M 617.550221785081,207.51972208258022 L 699.1362566316212,191.99090757184624 L780.7222914781614,176.46209306111226"/><path class="edge section-edge-1 edge-depth-0" d="M 475.77268833934795,216.53385791938013 L 531.8026695334534,213.79527942612867 L587.8326507275588,211.05670093287728"/><path class="edge section-edge-2 edge-depth-1" d="M 456.2402021008887,324.35399307303715 L 454.1982119887126,354.9734694580102 L452.1562218765365,385.59294584298334"/><path class="edge section-edge-2 edge-depth-0" d="M 460.2125932866257,232.25499953193702 L 459.0144486905865,263.3266885944777 L457.8163040945473,294.3983776570184"/><path class="edge section-edge-3 edge-depth-1" d="M 300.7804759995259,208.15138457794325 L 214.51111479428204,193.23955944380216 L128.24175358903818,178.32773430966108"/><path class="edge section-edge-3 edge-depth-0" d="M 445.8058519403032,216.58929409532104 L 388.175932805947,213.98620806441264 L330.5460136715908,211.38312203350424"/></g><g class="mindmap-nodes"><g transform="translate(421.47026102332995, 198.3661390400257)" class="mindmap-node section--1 section-root"><g transform="translate(39.3203125, 18.9)"><circle r="39.3203125" class="node-bkg node-circle" id="node-0"/></g><g transform="translate(39.3203125, 5)" text-anchor="middle" dominant-baseline="middle" alignment-baseline="middle" dy="1em"><g><rect class="background"/><text y="-10.1"><tspan dy="1.1em" y="-0.1em" x="0" class="text-outer-tspan"><tspan font-weight="normal" class="text-inner-tspan" font-style="normal">Semcal</tspan></tspan></text></g></g></g><g transform="translate(395.12476249159806, 106.12871649775127)" class="mindmap-node section-0"><g><path d="M0 32.8 v-27.799999999999997 q0,-5 5,-5 h113.21875 q5,0 5,5 v32.8 H0 Z" class="node-bkg node-no-border" id="node-1"/><line y2="37.8" x2="123.21875" y1="37.8" x1="0" class="node-line-0"/></g><g transform="translate(61.609375, 5)" text-anchor="middle" dominant-baseline="middle" alignment-baseline="middle" dy="1em"><g><rect class="background"/><text y="-10.1"><tspan dy="1.1em" y="-0.1em" x="0" class="text-outer-tspan"><tspan font-weight="normal" class="text-inner-tspan" font-style="normal">Rich</tspan><tspan font-weight="normal" class="text-inner-tspan" font-style="normal"> Content</tspan></tspan></text></g></g></g><g transform="translate(417.8334212553424, 15)" class="mindmap-node section-0"><g><path d="M0 0 a9.69140625,9.69140625 0 0,1 16.15234375,-6.4609375&#10;      a22.61328125,22.61328125 1 0,1 25.84375,-6.4609375&#10;      a16.15234375,16.15234375 1 0,1 22.61328125,12.921875&#10;&#10;      a9.69140625,9.69140625 1 0,1 9.69140625,13.229999999999999&#10;      a12.921875,12.921875 1 0,1 -9.69140625,24.57&#10;&#10;      a16.15234375,9.69140625 1 0,1 -16.15234375,9.69140625&#10;      a22.61328125,22.61328125 1 0,1 -32.3046875,0&#10;      a9.69140625,9.69140625 1 0,1 -16.15234375,-9.69140625&#10;&#10;      a9.69140625,9.69140625 1 0,1 -6.4609375,-13.229999999999999&#10;      a12.921875,12.921875 1 0,1 6.4609375,-24.57&#10;&#10;    H0 V0 Z" class="node-bkg node-cloud" id="node-2"/></g><g transform="translate(32.3046875, 5)" text-anchor="middle" dominant-baseline="middle" alignment-baseline="middle" dy="1em"><g><rect class="background"/><text y="-10.1"><tspan dy="1.1em" y="-0.1em" x="0" class="text-outer-tspan"><tspan font-weight="normal" class="text-inner-tspan" font-style="normal">HTML</tspan></tspan></text></g></g></g><g transform="translate(554.9319530435768, 191.4244198122317)" class="mindmap-node section-1"><g><path d="M0 32.8 v-27.799999999999997 q0,-5 5,-5 h85.765625 q5,0 5,5 v32.8 H0 Z" class="node-bkg node-no-border" id="node-3"/><line y2="37.8" x2="95.765625" y1="37.8" x1="0" class="node-line-1"/></g><g transform="translate(47.8828125, 5)" text-anchor="middle" dominant-baseline="middle" alignment-baseline="middle" dy="1em"><g><rect class="background"/><text y="-10.1"><tspan dy="1.1em" y="-0.1em" x="0" class="text-outer-tspan"><tspan font-weight="normal" class="text-inner-tspan" font-style="normal">Metadata</tspan></tspan></text></g></g></g><g transform="translate(703.2155602196657, 145.95739609440022)" class="mindmap-node section-1"><g><path d="M0 0 a27.67265625,27.67265625 0 0,1 46.12109375,-18.4484375&#10;      a64.56953125,64.56953125 1 0,1 73.79375,-18.4484375&#10;      a46.12109375,46.12109375 1 0,1 64.56953125,36.896875&#10;&#10;      a27.67265625,27.67265625 1 0,1 27.67265625,19.38999946594238&#10;      a36.896875,36.896875 1 0,1 -27.67265625,36.00999900817871&#10;&#10;      a46.12109375,27.67265625 1 0,1 -46.12109375,27.67265625&#10;      a64.56953125,64.56953125 1 0,1 -92.2421875,0&#10;      a27.67265625,27.67265625 1 0,1 -46.12109375,-27.67265625&#10;&#10;      a27.67265625,27.67265625 1 0,1 -18.4484375,-19.38999946594238&#10;      a36.896875,36.896875 1 0,1 18.4484375,-36.00999900817871&#10;&#10;    H0 V0 Z" class="node-bkg node-cloud" id="node-4"/></g><g transform="translate(92.2421875, 5)" text-anchor="middle" dominant-baseline="middle" alignment-baseline="middle" dy="1em"><g><rect class="background"/><text y="-10.1"><tspan dy="1.1em" y="-0.1em" x="0" class="text-outer-tspan"><tspan font-weight="normal" class="text-inner-tspan" font-style="normal">Concepts/Structured</tspan></tspan><tspan dy="1.1em" y="1em" x="0" class="text-outer-tspan"><tspan font-weight="normal" class="text-inner-tspan" font-style="normal">Data</tspan></tspan></text></g></g></g><g transform="translate(418.48051135784306, 290.4872381489297)" class="mindmap-node section-2"><g><path d="M0 32.8 v-27.799999999999997 q0,-5 5,-5 h67.515625 q5,0 5,5 v32.8 H0 Z" class="node-bkg node-no-border" id="node-5"/><line y2="37.8" x2="77.515625" y1="37.8" x1="0" class="node-line-2"/></g><g transform="translate(38.7578125, 5)" text-anchor="middle" dominant-baseline="middle" alignment-baseline="middle" dy="1em"><g><rect class="background"/><text y="-10.1"><tspan dy="1.1em" y="-0.1em" x="0" class="text-outer-tspan"><tspan font-weight="normal" class="text-inner-tspan" font-style="normal">Linking</tspan></tspan></text></g></g></g><g transform="translate(397.1971626195822, 381.65970076709084)" class="mindmap-node section-2"><g><path d="M0 0 a16.18828125,16.18828125 0 0,1 26.98046875,-10.7921875&#10;      a37.77265625,37.77265625 1 0,1 43.16875,-10.7921875&#10;      a26.98046875,26.98046875 1 0,1 37.77265625,21.584375&#10;&#10;      a16.18828125,16.18828125 1 0,1 16.18828125,13.229999999999999&#10;      a21.584375,21.584375 1 0,1 -16.18828125,24.57&#10;&#10;      a26.98046875,16.18828125 1 0,1 -26.98046875,16.18828125&#10;      a37.77265625,37.77265625 1 0,1 -53.9609375,0&#10;      a16.18828125,16.18828125 1 0,1 -26.98046875,-16.18828125&#10;&#10;      a16.18828125,16.18828125 1 0,1 -10.7921875,-13.229999999999999&#10;      a21.584375,21.584375 1 0,1 10.7921875,-24.57&#10;&#10;    H0 V0 Z" class="node-bkg node-cloud" id="node-6"/></g><g transform="translate(53.9609375, 5)" text-anchor="middle" dominant-baseline="middle" alignment-baseline="middle" dy="1em"><g><rect class="background"/><text y="-10.1"><tspan dy="1.1em" y="-0.1em" x="0" class="text-outer-tspan"><tspan font-weight="normal" class="text-inner-tspan" font-style="normal">Weblinking</tspan></tspan></text></g></g></g><g transform="translate(264.6706670885641, 191.80627708879956)" class="mindmap-node section-3"><g><path d="M0 32.8 v-27.799999999999997 q0,-5 5,-5 h91.78125 q5,0 5,5 v32.8 H0 Z" class="node-bkg node-no-border" id="node-7"/><line y2="37.8" x2="101.78125" y1="37.8" x1="0" class="node-line-3"/></g><g transform="translate(50.890625, 5)" text-anchor="middle" dominant-baseline="middle" alignment-baseline="middle" dy="1em"><g><rect class="background"/><text y="-10.1"><tspan dy="1.1em" y="-0.1em" x="0" class="text-outer-tspan"><tspan font-weight="normal" class="text-inner-tspan" font-style="normal">Publishing</tspan></tspan></text></g></g></g><g transform="translate(15, 148.0728425617442)" class="mindmap-node section-3"><g><path d="M0 0 a29.538281249999997,29.538281249999997 0 0,1 49.23046875,-19.692187500000003&#10;      a68.92265624999999,68.92265624999999 1 0,1 78.76875000000001,-19.692187500000003&#10;      a49.23046875,49.23046875 1 0,1 68.92265624999999,39.384375000000006&#10;&#10;      a29.538281249999997,29.538281249999997 1 0,1 29.538281249999997,19.38999946594238&#10;      a39.384375000000006,39.384375000000006 1 0,1 -29.538281249999997,36.00999900817871&#10;&#10;      a49.23046875,29.538281249999997 1 0,1 -49.23046875,29.538281249999997&#10;      a68.92265624999999,68.92265624999999 1 0,1 -98.4609375,0&#10;      a29.538281249999997,29.538281249999997 1 0,1 -49.23046875,-29.538281249999997&#10;&#10;      a29.538281249999997,29.538281249999997 1 0,1 -19.692187500000003,-19.38999946594238&#10;      a39.384375000000006,39.384375000000006 1 0,1 19.692187500000003,-36.00999900817871&#10;&#10;    H0 V0 Z" class="node-bkg node-cloud" id="node-8"/></g><g transform="translate(98.4609375, 5)" text-anchor="middle" dominant-baseline="middle" alignment-baseline="middle" dy="1em"><g><rect class="background"/><text y="-10.1"><tspan dy="1.1em" y="-0.1em" x="0" class="text-outer-tspan"><tspan font-weight="normal" class="text-inner-tspan" font-style="normal">WebSub/Webmention,</tspan></tspan><tspan dy="1.1em" y="1em" x="0" class="text-outer-tspan"><tspan font-weight="normal" class="text-inner-tspan" font-style="normal">etc.</tspan></tspan></text></g></g></g></g></svg>