<svg aria-roledescription="mindmap" role="graphics-document document" viewBox="-14.182811737060547 -29.414920806884766 959.8485717773438 503.73883056640625" style="max-width: 959.849px; background-color: white;" xmlns:xlink="http://www.w3.org/1999/xlink" xmlns="http://www.w3.org/2000/svg" width="100%" id="my-svg"><style>#my-svg{font-family:"trebuchet ms",verdana,arial,sans-serif;font-size:16px;fill:#333;}#my-svg .error-icon{fill:#552222;}#my-svg .error-text{fill:#552222;stroke:#552222;}#my-svg .edge-thickness-normal{stroke-width:2px;}#my-svg .edge-thickness-thick{stroke-width:3.5px;}#my-svg .edge-pattern-solid{stroke-dasharray:0;}#my-svg .edge-pattern-dashed{stroke-dasharray:3;}#my-svg .edge-pattern-dotted{stroke-dasharray:2;}#my-svg .marker{fill:#333333;stroke:#333333;}#my-svg .marker.cross{stroke:#333333;}#my-svg svg{font-family:"trebuchet ms",verdana,arial,sans-serif;font-size:16px;}#my-svg .edge{stroke-width:3;}#my-svg .section--1 rect,#my-svg .section--1 path,#my-svg .section--1 circle,#my-svg .section--1 polygon,#my-svg .section--1 path{fill:hsl(240, 100%, 76.2745098039%);}#my-svg .section--1 text{fill:#ffffff;}#my-svg .node-icon--1{font-size:40px;color:#ffffff;}#my-svg .section-edge--1{stroke:hsl(240, 100%, 76.2745098039%);}#my-svg .edge-depth--1{stroke-width:17;}#my-svg .section--1 line{stroke:hsl(60, 100%, 86.2745098039%);stroke-width:3;}#my-svg .disabled,#my-svg .disabled circle,#my-svg .disabled text{fill:lightgray;}#my-svg .disabled text{fill:#efefef;}#my-svg .section-0 rect,#my-svg .section-0 path,#my-svg .section-0 circle,#my-svg .section-0 polygon,#my-svg .section-0 path{fill:hsl(60, 100%, 73.5294117647%);}#my-svg .section-0 text{fill:black;}#my-svg .node-icon-0{font-size:40px;color:black;}#my-svg .section-edge-0{stroke:hsl(60, 100%, 73.5294117647%);}#my-svg .edge-depth-0{stroke-width:14;}#my-svg .section-0 line{stroke:hsl(240, 100%, 83.5294117647%);stroke-width:3;}#my-svg .disabled,#my-svg .disabled circle,#my-svg .disabled text{fill:lightgray;}#my-svg .disabled text{fill:#efefef;}#my-svg .section-1 rect,#my-svg .section-1 path,#my-svg .section-1 circle,#my-svg .section-1 polygon,#my-svg .section-1 path{fill:hsl(80, 100%, 76.2745098039%);}#my-svg .section-1 text{fill:black;}#my-svg .node-icon-1{font-size:40px;color:black;}#my-svg .section-edge-1{stroke:hsl(80, 100%, 76.2745098039%);}#my-svg .edge-depth-1{stroke-width:11;}#my-svg .section-1 line{stroke:hsl(260, 100%, 86.2745098039%);stroke-width:3;}#my-svg .disabled,#my-svg .disabled circle,#my-svg .disabled text{fill:lightgray;}#my-svg .disabled text{fill:#efefef;}#my-svg .section-2 rect,#my-svg .section-2 path,#my-svg .section-2 circle,#my-svg .section-2 polygon,#my-svg .section-2 path{fill:hsl(270, 100%, 76.2745098039%);}#my-svg .section-2 text{fill:#ffffff;}#my-svg .node-icon-2{font-size:40px;color:#ffffff;}#my-svg .section-edge-2{stroke:hsl(270, 100%, 76.2745098039%);}#my-svg .edge-depth-2{stroke-width:8;}#my-svg .section-2 line{stroke:hsl(90, 100%, 86.2745098039%);stroke-width:3;}#my-svg .disabled,#my-svg .disabled circle,#my-svg .disabled text{fill:lightgray;}#my-svg .disabled text{fill:#efefef;}#my-svg .section-3 rect,#my-svg .section-3 path,#my-svg .section-3 circle,#my-svg .section-3 polygon,#my-svg .section-3 path{fill:hsl(300, 100%, 76.2745098039%);}#my-svg .section-3 text{fill:black;}#my-svg .node-icon-3{font-size:40px;color:black;}#my-svg .section-edge-3{stroke:hsl(300, 100%, 76.2745098039%);}#my-svg .edge-depth-3{stroke-width:5;}#my-svg .section-3 line{stroke:hsl(120, 100%, 86.2745098039%);stroke-width:3;}#my-svg .disabled,#my-svg .disabled circle,#my-svg .disabled text{fill:lightgray;}#my-svg .disabled text{fill:#efefef;}#my-svg .section-4 rect,#my-svg .section-4 path,#my-svg .section-4 circle,#my-svg .section-4 polygon,#my-svg .section-4 path{fill:hsl(330, 100%, 76.2745098039%);}#my-svg .section-4 text{fill:black;}#my-svg .node-icon-4{font-size:40px;color:black;}#my-svg .section-edge-4{stroke:hsl(330, 100%, 76.2745098039%);}#my-svg .edge-depth-4{stroke-width:2;}#my-svg .section-4 line{stroke:hsl(150, 100%, 86.2745098039%);stroke-width:3;}#my-svg .disabled,#my-svg .disabled circle,#my-svg .disabled text{fill:lightgray;}#my-svg .disabled text{fill:#efefef;}#my-svg .section-5 rect,#my-svg .section-5 path,#my-svg .section-5 circle,#my-svg .section-5 polygon,#my-svg .section-5 path{fill:hsl(0, 100%, 76.2745098039%);}#my-svg .section-5 text{fill:black;}#my-svg .node-icon-5{font-size:40px;color:black;}#my-svg .section-edge-5{stroke:hsl(0, 100%, 76.2745098039%);}#my-svg .edge-depth-5{stroke-width:-1;}#my-svg .section-5 line{stroke:hsl(180, 100%, 86.2745098039%);stroke-width:3;}#my-svg .disabled,#my-svg .disabled circle,#my-svg .disabled text{fill:lightgray;}#my-svg .disabled text{fill:#efefef;}#my-svg .section-6 rect,#my-svg .section-6 path,#my-svg .section-6 circle,#my-svg .section-6 polygon,#my-svg .section-6 path{fill:hsl(30, 100%, 76.2745098039%);}#my-svg .section-6 text{fill:black;}#my-svg .node-icon-6{font-size:40px;color:black;}#my-svg .section-edge-6{stroke:hsl(30, 100%, 76.2745098039%);}#my-svg .edge-depth-6{stroke-width:-4;}#my-svg .section-6 line{stroke:hsl(210, 100%, 86.2745098039%);stroke-width:3;}#my-svg .disabled,#my-svg .disabled circle,#my-svg .disabled text{fill:lightgray;}#my-svg .disabled text{fill:#efefef;}#my-svg .section-7 rect,#my-svg .section-7 path,#my-svg .section-7 circle,#my-svg .section-7 polygon,#my-svg .section-7 path{fill:hsl(90, 100%, 76.2745098039%);}#my-svg .section-7 text{fill:black;}#my-svg .node-icon-7{font-size:40px;color:black;}#my-svg .section-edge-7{stroke:hsl(90, 100%, 76.2745098039%);}#my-svg .edge-depth-7{stroke-width:-7;}#my-svg .section-7 line{stroke:hsl(270, 100%, 86.2745098039%);stroke-width:3;}#my-svg .disabled,#my-svg .disabled circle,#my-svg .disabled text{fill:lightgray;}#my-svg .disabled text{fill:#efefef;}#my-svg .section-8 rect,#my-svg .section-8 path,#my-svg .section-8 circle,#my-svg .section-8 polygon,#my-svg .section-8 path{fill:hsl(150, 100%, 76.2745098039%);}#my-svg .section-8 text{fill:black;}#my-svg .node-icon-8{font-size:40px;color:black;}#my-svg .section-edge-8{stroke:hsl(150, 100%, 76.2745098039%);}#my-svg .edge-depth-8{stroke-width:-10;}#my-svg .section-8 line{stroke:hsl(330, 100%, 86.2745098039%);stroke-width:3;}#my-svg .disabled,#my-svg .disabled circle,#my-svg .disabled text{fill:lightgray;}#my-svg .disabled text{fill:#efefef;}#my-svg .section-9 rect,#my-svg .section-9 path,#my-svg .section-9 circle,#my-svg .section-9 polygon,#my-svg .section-9 path{fill:hsl(180, 100%, 76.2745098039%);}#my-svg .section-9 text{fill:black;}#my-svg .node-icon-9{font-size:40px;color:black;}#my-svg .section-edge-9{stroke:hsl(180, 100%, 76.2745098039%);}#my-svg .edge-depth-9{stroke-width:-13;}#my-svg .section-9 line{stroke:hsl(0, 100%, 86.2745098039%);stroke-width:3;}#my-svg .disabled,#my-svg .disabled circle,#my-svg .disabled text{fill:lightgray;}#my-svg .disabled text{fill:#efefef;}#my-svg .section-10 rect,#my-svg .section-10 path,#my-svg .section-10 circle,#my-svg .section-10 polygon,#my-svg .section-10 path{fill:hsl(210, 100%, 76.2745098039%);}#my-svg .section-10 text{fill:black;}#my-svg .node-icon-10{font-size:40px;color:black;}#my-svg .section-edge-10{stroke:hsl(210, 100%, 76.2745098039%);}#my-svg .edge-depth-10{stroke-width:-16;}#my-svg .section-10 line{stroke:hsl(30, 100%, 86.2745098039%);stroke-width:3;}#my-svg .disabled,#my-svg .disabled circle,#my-svg .disabled text{fill:lightgray;}#my-svg .disabled text{fill:#efefef;}#my-svg .section-root rect,#my-svg .section-root path,#my-svg .section-root circle,#my-svg .section-root polygon{fill:hsl(240, 100%, 46.2745098039%);}#my-svg .section-root text{fill:#ffffff;}#my-svg .icon-container{height:100%;display:flex;justify-content:center;align-items:center;}#my-svg .edge{fill:none;}#my-svg .mindmap-node-label{dy:1em;alignment-baseline:middle;text-anchor:middle;dominant-baseline:middle;text-align:center;}#my-svg :root{--mermaid-font-family:"trebuchet ms",verdana,arial,sans-serif;}</style><g/><g class="mindmap-edges"><path class="edge section-edge-0 edge-depth-1" d="M 460.83587187172697,110.03290460583491 L 458.179669908965,79.43834505478819 L455.5234679462031,48.843785503741444"/><path class="edge section-edge-0 edge-depth-0" d="M 457.5700308744178,202.19174538062558 L 459.40919411418906,171.07115482174723 L461.24835735396033,139.95056426286888"/><path class="edge section-edge-1 edge-depth-1" d="M 614.8508759157049,208.34682298758722 L 701.4559328043272,192.69968893288993 L788.0609896929494,177.05255487819264"/><path class="edge section-edge-1 edge-depth-0" d="M 471.67132227071875,216.52272902703237 L 528.3874824681893,214.08967459831462 L585.1036426656599,211.6566201695968"/><path class="edge section-edge-2 edge-depth-1" d="M 460.05172914213847,324.25820361209753 L 462.0223280327514,354.87818607001554 L463.9929269233643,385.49816852793344"/><path class="edge section-edge-2 edge-depth-0" d="M 457.0762839708658,232.16051798098795 L 457.88673908657154,263.22739515192393 L458.6971942022773,294.2942723228599"/><path class="edge section-edge-3 edge-depth-1" d="M 295.6842955247447,207.2643876355402 L 210.69944437501516,193.26483257985487 L125.7145932252856,179.26527752416953"/><path class="edge section-edge-3 edge-depth-0" d="M 441.70461118854837,216.4009046313245 L 383.5849658967487,213.4340493437018 L325.46532060494906,210.46719405607908"/></g><g class="mindmap-nodes"><g transform="translate(416.1772930434671, 198.26561953391808)" class="mindmap-node section--1 section-root"><g transform="translate(40.5078125, 18.9)"><circle r="40.5078125" class="node-bkg node-circle" id="node-0"/></g><g transform="translate(40.5078125, 5)" text-anchor="middle" dominant-baseline="middle" alignment-baseline="middle" dy="1em"><g><rect class="background"/><text y="-10.1"><tspan dy="1.1em" y="-0.1em" x="0" class="text-outer-tspan"><tspan font-weight="normal" class="text-inner-tspan" font-style="normal">SemCal</tspan></tspan></text></g></g></g><g transform="translate(400.523907684911, 106.07669010957636)" class="mindmap-node section-0"><g><path d="M0 32.8 v-27.799999999999997 q0,-5 5,-5 h113.21875 q5,0 5,5 v32.8 H0 Z" class="node-bkg node-no-border" id="node-1"/><line y2="37.8" x2="123.21875" y1="37.8" x1="0" class="node-line-0"/></g><g transform="translate(61.609375, 5)" text-anchor="middle" dominant-baseline="middle" alignment-baseline="middle" dy="1em"><g><rect class="background"/><text y="-10.1"><tspan dy="1.1em" y="-0.1em" x="0" class="text-outer-tspan"><tspan font-weight="normal" class="text-inner-tspan" font-style="normal">Rich</tspan><tspan font-weight="normal" class="text-inner-tspan" font-style="normal"> Content</tspan></tspan></text></g></g></g><g transform="translate(377.952619633019, 15)" class="mindmap-node section-0"><g><path d="M0 0 a22.88203125,22.88203125 0 0,1 38.13671875,-15.254687500000001&#10;      a53.391406249999996,53.391406249999996 1 0,1 61.018750000000004,-15.254687500000001&#10;      a38.13671875,38.13671875 1 0,1 53.391406249999996,30.509375000000002&#10;&#10;      a22.88203125,22.88203125 1 0,1 22.88203125,13.229999999999999&#10;      a30.509375000000002,30.509375000000002 1 0,1 -22.88203125,24.57&#10;&#10;      a38.13671875,22.88203125 1 0,1 -38.13671875,22.88203125&#10;      a53.391406249999996,53.391406249999996 1 0,1 -76.2734375,0&#10;      a22.88203125,22.88203125 1 0,1 -38.13671875,-22.88203125&#10;&#10;      a22.88203125,22.88203125 1 0,1 -15.254687500000001,-13.229999999999999&#10;      a30.509375000000002,30.509375000000002 1 0,1 15.254687500000001,-24.57&#10;&#10;    H0 V0 Z" class="node-bkg node-cloud" id="node-2"/></g><g transform="translate(76.2734375, 5)" text-anchor="middle" dominant-baseline="middle" alignment-baseline="middle" dy="1em"><g><rect class="background"/><text y="-10.1"><tspan dy="1.1em" y="-0.1em" x="0" class="text-outer-tspan"><tspan font-weight="normal" class="text-inner-tspan" font-style="normal">HTML/Markdown</tspan></tspan></text></g></g></g><g transform="translate(552.2070468929115, 192.11372966271108)" class="mindmap-node section-1"><g><path d="M0 32.8 v-27.799999999999997 q0,-5 5,-5 h85.765625 q5,0 5,5 v32.8 H0 Z" class="node-bkg node-no-border" id="node-3"/><line y2="37.8" x2="95.765625" y1="37.8" x1="0" class="node-line-1"/></g><g transform="translate(47.8828125, 5)" text-anchor="middle" dominant-baseline="middle" alignment-baseline="middle" dy="1em"><g><rect class="background"/><text y="-10.1"><tspan dy="1.1em" y="-0.1em" x="0" class="text-outer-tspan"><tspan font-weight="normal" class="text-inner-tspan" font-style="normal">Metadata</tspan></tspan></text></g></g></g><g transform="translate(700.6345062157428, 155.48564820306876)" class="mindmap-node section-1"><g><path d="M0 0 a30.65625,30.65625 0 0,1 51.09375,-20.4375&#10;      a71.53125,71.53125 1 0,1 81.75,-20.4375&#10;      a51.09375,51.09375 1 0,1 71.53125,40.875&#10;&#10;      a30.65625,30.65625 1 0,1 30.65625,13.229999999999999&#10;      a40.875,40.875 1 0,1 -30.65625,24.57&#10;&#10;      a51.09375,30.65625 1 0,1 -51.09375,30.65625&#10;      a71.53125,71.53125 1 0,1 -102.1875,0&#10;      a30.65625,30.65625 1 0,1 -51.09375,-30.65625&#10;&#10;      a30.65625,30.65625 1 0,1 -20.4375,-13.229999999999999&#10;      a40.875,40.875 1 0,1 20.4375,-24.57&#10;&#10;    H0 V0 Z" class="node-bkg node-cloud" id="node-4"/></g><g transform="translate(102.1875, 5)" text-anchor="middle" dominant-baseline="middle" alignment-baseline="middle" dy="1em"><g><rect class="background"/><text y="-10.1"><tspan dy="1.1em" y="-0.1em" x="0" class="text-outer-tspan"><tspan font-weight="normal" class="text-inner-tspan" font-style="normal">Concept/RDFa/JSON-LD</tspan></tspan></text></g></g></g><g transform="translate(420.330560129676, 290.3891707699298)" class="mindmap-node section-2"><g><path d="M0 32.8 v-27.799999999999997 q0,-5 5,-5 h67.515625 q5,0 5,5 v32.8 H0 Z" class="node-bkg node-no-border" id="node-5"/><line y2="37.8" x2="77.515625" y1="37.8" x1="0" class="node-line-2"/></g><g transform="translate(38.7578125, 5)" text-anchor="middle" dominant-baseline="middle" alignment-baseline="middle" dy="1em"><g><rect class="background"/><text y="-10.1"><tspan dy="1.1em" y="-0.1em" x="0" class="text-outer-tspan"><tspan font-weight="normal" class="text-inner-tspan" font-style="normal">Linking</tspan></tspan></text></g></g></g><g transform="translate(376.8234709358268, 381.5672013701012)" class="mindmap-node section-2"><g><path d="M0 0 a26.439843749999998,26.439843749999998 0 0,1 44.06640625,-17.626562500000002&#10;      a61.69296875,61.69296875 1 0,1 70.50625000000001,-17.626562500000002&#10;      a44.06640625,44.06640625 1 0,1 61.69296875,35.253125000000004&#10;&#10;      a26.439843749999998,26.439843749999998 1 0,1 26.439843749999998,13.229999999999999&#10;      a35.253125000000004,35.253125000000004 1 0,1 -26.439843749999998,24.57&#10;&#10;      a44.06640625,26.439843749999998 1 0,1 -44.06640625,26.439843749999998&#10;      a61.69296875,61.69296875 1 0,1 -88.1328125,0&#10;      a26.439843749999998,26.439843749999998 1 0,1 -44.06640625,-26.439843749999998&#10;&#10;      a26.439843749999998,26.439843749999998 1 0,1 -17.626562500000002,-13.229999999999999&#10;      a35.253125000000004,35.253125000000004 1 0,1 17.626562500000002,-24.57&#10;&#10;    H0 V0 Z" class="node-bkg node-cloud" id="node-6"/></g><g transform="translate(88.1328125, 5)" text-anchor="middle" dominant-baseline="middle" alignment-baseline="middle" dy="1em"><g><rect class="background"/><text y="-10.1"><tspan dy="1.1em" y="-0.1em" x="0" class="text-outer-tspan"><tspan font-weight="normal" class="text-inner-tspan" font-style="normal">Weblinking</tspan><tspan font-weight="normal" class="text-inner-tspan" font-style="normal"> Support</tspan></tspan></text></g></g></g><g transform="translate(259.5942012500303, 190.80247915348548)" class="mindmap-node section-3"><g><path d="M0 32.8 v-27.799999999999997 q0,-5 5,-5 h91.78125 q5,0 5,5 v32.8 H0 Z" class="node-bkg node-no-border" id="node-7"/><line y2="37.8" x2="101.78125" y1="37.8" x1="0" class="node-line-3"/></g><g transform="translate(50.890625, 5)" text-anchor="middle" dominant-baseline="middle" alignment-baseline="middle" dy="1em"><g><rect class="background"/><text y="-10.1"><tspan dy="1.1em" y="-0.1em" x="0" class="text-outer-tspan"><tspan font-weight="normal" class="text-inner-tspan" font-style="normal">Publishing</tspan></tspan></text></g></g></g><g transform="translate(15, 157.92718600622425)" class="mindmap-node section-3"><g><path d="M0 0 a28.77421875,28.77421875 0 0,1 47.95703125,-19.1828125&#10;      a67.13984375,67.13984375 1 0,1 76.73125,-19.1828125&#10;      a47.95703125,47.95703125 1 0,1 67.13984375,38.365625&#10;&#10;      a28.77421875,28.77421875 1 0,1 28.77421875,13.229999999999999&#10;      a38.365625,38.365625 1 0,1 -28.77421875,24.57&#10;&#10;      a47.95703125,28.77421875 1 0,1 -47.95703125,28.77421875&#10;      a67.13984375,67.13984375 1 0,1 -95.9140625,0&#10;      a28.77421875,28.77421875 1 0,1 -47.95703125,-28.77421875&#10;&#10;      a28.77421875,28.77421875 1 0,1 -19.1828125,-13.229999999999999&#10;      a38.365625,38.365625 1 0,1 19.1828125,-24.57&#10;&#10;    H0 V0 Z" class="node-bkg node-cloud" id="node-8"/></g><g transform="translate(95.9140625, 5)" text-anchor="middle" dominant-baseline="middle" alignment-baseline="middle" dy="1em"><g><rect class="background"/><text y="-10.1"><tspan dy="1.1em" y="-0.1em" x="0" class="text-outer-tspan"><tspan font-weight="normal" class="text-inner-tspan" font-style="normal">WebSub/Webmention</tspan></tspan></text></g></g></g></g></svg>